<svg width="16" height="16" viewBox="0 0 16 16" fill="none" xmlns="http://www.w3.org/2000/svg">
<path fill-rule="evenodd" clip-rule="evenodd" d="M3.29251 5.57287C3.29251 5.20253 3.36554 4.83582 3.50744 4.49368C3.64933 4.15153 3.85731 3.84065 4.1195 3.57878C4.38169 3.31692 4.69295 3.10919 5.03552 2.96747C5.37809 2.82575 5.74525 2.75281 6.11604 2.75281C6.48683 2.75281 6.85399 2.82575 7.19656 2.96747C7.53912 3.10919 7.85039 3.31692 8.11258 3.57878C8.37476 3.84065 8.58274 4.15153 8.72464 4.49368C8.86654 4.83582 8.93957 5.20253 8.93957 5.57287C8.93957 6.32079 8.64209 7.03809 8.11258 7.56695C7.58306 8.09582 6.86489 8.39293 6.11604 8.39293C5.36719 8.39293 4.64902 8.09582 4.1195 7.56695C3.58999 7.03809 3.29251 6.32079 3.29251 5.57287ZM6.11604 4.00617C5.70001 4.00617 5.30103 4.17123 5.00685 4.46504C4.71268 4.75886 4.54741 5.15735 4.54741 5.57287C4.54741 5.98838 4.71268 6.38688 5.00685 6.68069C5.30103 6.97451 5.70001 7.13957 6.11604 7.13957C6.53206 7.13957 6.93105 6.97451 7.22523 6.68069C7.5194 6.38688 7.68467 5.98838 7.68467 5.57287C7.68467 5.15735 7.5194 4.75886 7.22523 4.46504C6.93105 4.17123 6.53206 4.00617 6.11604 4.00617ZM6.11604 9.01961C7.36655 9.01961 8.50349 9.40063 9.33925 9.93832C9.75776 10.2078 10.116 10.5255 10.3764 10.8721C10.6318 11.2136 10.8219 11.6241 10.8219 12.0634C10.8219 12.5365 10.6023 12.9157 10.2798 13.1895C9.97549 13.4465 9.57894 13.6132 9.16922 13.7279C8.34537 13.9578 7.25549 14.0331 6.11604 14.0331C4.97659 14.0331 3.88671 13.9578 3.06349 13.7279C2.65314 13.6132 2.25659 13.4465 1.9529 13.1895C1.62914 12.9163 1.41016 12.5365 1.41016 12.0634C1.41016 11.6235 1.60027 11.2136 1.85565 10.8727C2.11604 10.5255 2.47431 10.2072 2.89282 9.93895C3.72859 9.4 4.86553 9.01961 6.11604 9.01961ZM6.11604 10.273C5.114 10.273 4.21172 10.5813 3.57173 10.9924C3.25173 11.1979 3.01329 11.4198 2.8602 11.6235C2.70333 11.8328 2.66506 11.9844 2.66506 12.0634C2.66506 12.1098 2.67447 12.1574 2.76357 12.2326C2.87212 12.3253 3.07353 12.4294 3.40106 12.5209C4.05361 12.7026 5.00294 12.7797 6.11604 12.7797C7.22914 12.7797 8.17847 12.7026 8.83102 12.5209C9.15855 12.4294 9.35996 12.3253 9.46851 12.2326C9.55761 12.1574 9.56702 12.1098 9.56702 12.0634C9.56702 11.9844 9.52874 11.8328 9.37188 11.6235C9.21878 11.4198 8.98035 11.1979 8.66035 10.9924C8.02035 10.5813 7.11808 10.273 6.11604 10.273ZM11.4494 9.01961C12.2776 9.01961 13.0293 9.29284 13.5827 9.67825C14.0985 10.0373 14.5866 10.6039 14.5866 11.2575C14.5866 11.6253 14.4279 11.9299 14.1863 12.1511C13.9623 12.3567 13.6787 12.482 13.4058 12.5647C12.8599 12.7296 12.1571 12.7797 11.4494 12.7797H11.322C11.4036 12.5616 11.4494 12.3222 11.4494 12.0634C11.4485 11.923 11.436 11.7872 11.4117 11.6561L11.3822 11.5263H11.4494C12.1276 11.5263 12.6792 11.4749 13.0425 11.3653C13.2069 11.3151 13.2916 11.265 13.328 11.2362C13.3098 11.1622 13.2119 10.9479 12.8649 10.7066C12.5625 10.5009 12.2188 10.3637 11.8578 10.3046C11.4968 10.2455 11.1272 10.2659 10.7749 10.3645C10.4712 10.0042 10.115 9.69152 9.71824 9.43698C10.2541 9.16295 10.8474 9.0199 11.4494 9.01961ZM9.56702 6.51289C9.56702 6.01427 9.76534 5.53608 10.1183 5.1835C10.4714 4.83092 10.9501 4.63285 11.4494 4.63285C11.9486 4.63285 12.4274 4.83092 12.7804 5.1835C13.1334 5.53608 13.3317 6.01427 13.3317 6.51289C13.3317 7.01151 13.1334 7.4897 12.7804 7.84228C12.4274 8.19485 11.9486 8.39293 11.4494 8.39293C10.9501 8.39293 10.4714 8.19485 10.1183 7.84228C9.76534 7.4897 9.56702 7.01151 9.56702 6.51289ZM11.4494 5.88621C11.283 5.88621 11.1234 5.95223 11.0057 6.06976C10.888 6.18728 10.8219 6.34668 10.8219 6.51289C10.8219 6.67909 10.888 6.83849 11.0057 6.95602C11.1234 7.07354 11.283 7.13957 11.4494 7.13957C11.6158 7.13957 11.7754 7.07354 11.893 6.95602C12.0107 6.83849 12.0768 6.67909 12.0768 6.51289C12.0768 6.34668 12.0107 6.18728 11.893 6.06976C11.7754 5.95223 11.6158 5.88621 11.4494 5.88621Z" fill="#262626"/>
</svg>
