<svg width="18" height="18" viewBox="0 0 18 18" fill="none" xmlns="http://www.w3.org/2000/svg">
<path d="M9.43618 9.66703C10.1782 9.66703 10.8898 9.96144 11.4145 10.4855C11.9392 11.0095 12.234 11.7203 12.234 12.4614V13.5093C12.234 13.7872 12.1235 14.0538 11.9267 14.2503C11.7299 14.4468 11.4631 14.5572 11.1848 14.5572H2.79137C2.51311 14.5572 2.24624 14.4468 2.04949 14.2503C1.85273 14.0538 1.74219 13.7872 1.74219 13.5093V12.4614C1.74219 11.7203 2.03696 11.0095 2.56165 10.4855C3.08634 9.96144 3.79798 9.66703 4.54 9.66703H9.43618ZM13.6329 9.66703C14.1894 9.66703 14.7231 9.88784 15.1167 10.2809C15.5102 10.6739 15.7313 11.207 15.7313 11.7628V12.8107C15.7313 13.0886 15.6207 13.3552 15.424 13.5517C15.2272 13.7482 14.9603 13.8586 14.6821 13.8586H13.6329V12.4614C13.6329 11.9191 13.5065 11.3843 13.2637 10.8993C13.0209 10.4143 12.6683 9.99239 12.234 9.66703H13.6329ZM6.98809 2.68109C7.82287 2.68109 8.62346 3.0123 9.21374 3.60185C9.80401 4.19141 10.1356 4.99101 10.1356 5.82477C10.1356 6.65852 9.80401 7.45813 9.21374 8.04768C8.62346 8.63723 7.82287 8.96844 6.98809 8.96844C6.15331 8.96844 5.35272 8.63723 4.76244 8.04768C4.17216 7.45813 3.84055 6.65852 3.84055 5.82477C3.84055 4.99101 4.17216 4.19141 4.76244 3.60185C5.35272 3.0123 6.15331 2.68109 6.98809 2.68109ZM12.9334 4.77687C13.49 4.77687 14.0237 4.99768 14.4172 5.39071C14.8107 5.78375 15.0318 6.31682 15.0318 6.87266C15.0318 7.42849 14.8107 7.96156 14.4172 8.3546C14.0237 8.74763 13.49 8.96844 12.9334 8.96844C12.3769 8.96844 11.8432 8.74763 11.4497 8.3546C11.0562 7.96156 10.8351 7.42849 10.8351 6.87266C10.8351 6.31682 11.0562 5.78375 11.4497 5.39071C11.8432 4.99768 12.3769 4.77687 12.9334 4.77687Z" fill="#262626"/>
</svg>
