<svg width="24" height="24" viewBox="0 0 24 24" fill="none" xmlns="http://www.w3.org/2000/svg">
<path d="M21.7426 12.3311L12.7426 2.33115C12.3636 1.90915 11.6356 1.90915 11.2566 2.33115L2.25663 12.3311C2.12731 12.4749 2.04242 12.653 2.01225 12.844C1.98208 13.0349 2.00791 13.2306 2.08663 13.4071C2.24663 13.7681 2.60463 14.0001 2.99963 14.0001H4.99963V21.0001C4.99963 21.2654 5.10498 21.5197 5.29252 21.7073C5.48006 21.8948 5.73441 22.0001 5.99963 22.0001H8.99963C9.26484 22.0001 9.5192 21.8948 9.70673 21.7073C9.89427 21.5197 9.99963 21.2654 9.99963 21.0001V17.0001H13.9996V21.0001C13.9996 21.2654 14.105 21.5197 14.2925 21.7073C14.4801 21.8948 14.7344 22.0001 14.9996 22.0001H17.9996C18.2648 22.0001 18.5192 21.8948 18.7067 21.7073C18.8943 21.5197 18.9996 21.2654 18.9996 21.0001V14.0001H20.9996C21.1933 14.001 21.383 13.9454 21.5457 13.8403C21.7083 13.7352 21.8369 13.585 21.9156 13.408C21.9944 13.2311 22.02 13.0351 21.9892 12.8439C21.9585 12.6527 21.8728 12.4745 21.7426 12.3311Z" fill="#379E37"/>
</svg>
