<svg width="18" height="18" viewBox="0 0 18 18" fill="none" xmlns="http://www.w3.org/2000/svg">
<path fill-rule="evenodd" clip-rule="evenodd" d="M2.81422 6.24982C2.81432 2.83264 5.58452 0.0625 9.00172 0.0625C12.419 0.0625 15.1892 2.83274 15.1892 6.25L15.189 6.29509V6.9375C15.189 8.8837 15.9233 10.6568 17.131 11.9974C17.2837 12.1668 17.3424 12.4009 17.2877 12.6223C17.2331 12.8436 17.0723 13.0235 16.8583 13.1025C15.443 13.625 13.9614 14.0104 12.4297 14.2426C12.436 14.3276 12.4392 14.4135 12.4392 14.5C12.4392 16.3985 10.9002 17.9375 9.00172 17.9375C7.10324 17.9375 5.56422 16.3985 5.56422 14.5C5.56422 14.4135 5.56743 14.3277 5.57374 14.2426C4.04193 14.0104 2.56018 13.625 1.14473 13.1025C0.930814 13.0235 0.769972 12.8436 0.715344 12.6223C0.660715 12.4009 0.719409 12.1668 0.872034 11.9974C2.07977 10.6568 2.81404 8.8837 2.81404 6.9375L2.81422 6.24982ZM6.94124 14.4077C6.9399 14.4383 6.93922 14.469 6.93922 14.5C6.93922 15.6391 7.86263 16.5625 9.00172 16.5625C10.1408 16.5625 11.0642 15.6391 11.0642 14.5C11.0642 14.469 11.0635 14.4382 11.0622 14.4076C10.3833 14.4688 9.696 14.5 9.00154 14.5C8.3072 14.5 7.61998 14.4688 6.94124 14.4077Z" fill="#379E37"/>
</svg>
