<svg width="23" height="22" viewBox="0 0 23 22" fill="none" xmlns="http://www.w3.org/2000/svg">
<path d="M18.1462 18.472C16.6246 16.4639 14.2138 15.1667 11.5 15.1667C8.78623 15.1667 6.37543 16.4639 4.85385 18.472M18.1462 18.472C20.2039 16.6404 21.5 13.9716 21.5 11C21.5 5.47715 17.0228 1 11.5 1C5.97715 1 1.5 5.47715 1.5 11C1.5 13.9716 2.79611 16.6404 4.85385 18.472M18.1462 18.472C16.3794 20.0446 14.0513 21 11.5 21C8.94871 21 6.62056 20.0446 4.85385 18.472M14.8333 8.5C14.8333 10.3409 13.3409 11.8333 11.5 11.8333C9.65905 11.8333 8.16667 10.3409 8.16667 8.5C8.16667 6.65905 9.65905 5.16667 11.5 5.16667C13.3409 5.16667 14.8333 6.65905 14.8333 8.5Z" stroke="#379E37" stroke-width="1.5" stroke-linecap="round" stroke-linejoin="round"/>
</svg>
