<svg width="23" height="22" viewBox="0 0 23 22" fill="none" xmlns="http://www.w3.org/2000/svg">
<g clip-path="url(#clip0_1286_4270)">
<path d="M15.625 9.625C15.625 11.9075 13.7825 13.75 11.5 13.75C9.2175 13.75 7.375 11.9075 7.375 9.625C7.375 7.3425 9.2175 5.5 11.5 5.5C13.7825 5.5 15.625 7.3425 15.625 9.625Z" fill="#379E37"/>
<path fill-rule="evenodd" clip-rule="evenodd" d="M22.5 11C22.5 17.0775 17.5775 22 11.5 22C5.4225 22 0.5 17.0775 0.5 11C0.5 4.9225 5.4225 0 11.5 0C17.5775 0 22.5 4.9225 22.5 11ZM6 18.9062C6.22 18.5405 8.35125 15.125 11.4862 15.125C14.6075 15.125 16.7525 18.5487 16.9725 18.9062C18.2511 18.0221 19.2957 16.8406 20.0167 15.4634C20.7376 14.0862 21.1132 12.5545 21.1112 11C21.1112 5.67875 16.8075 1.375 11.4862 1.375C6.165 1.375 1.86125 5.67875 1.86125 11C1.86125 14.2725 3.4975 17.1737 6 18.9062Z" fill="#379E37"/>
</g>
<defs>
<clipPath id="clip0_1286_4270">
<rect width="22" height="22" fill="white" transform="translate(0.5)"/>
</clipPath>
</defs>
</svg>
