<svg width="18" height="18" viewBox="0 0 18 18" fill="none" xmlns="http://www.w3.org/2000/svg">
<path fill-rule="evenodd" clip-rule="evenodd" d="M7.875 2.8125C5.07906 2.8125 2.8125 5.07906 2.8125 7.875C2.8125 10.6709 5.07906 12.9375 7.875 12.9375C9.27313 12.9375 10.538 12.3715 11.4547 11.4547C12.3715 10.538 12.9375 9.27313 12.9375 7.875C12.9375 5.07906 10.6709 2.8125 7.875 2.8125ZM1.6875 7.875C1.6875 4.45774 4.45774 1.6875 7.875 1.6875C11.2923 1.6875 14.0625 4.45774 14.0625 7.875C14.0625 9.38087 13.524 10.7618 12.6299 11.8345L16.1477 15.3523C16.3674 15.5719 16.3674 15.9281 16.1477 16.1477C15.9281 16.3674 15.5719 16.3674 15.3523 16.1477L11.8345 12.6299C10.7618 13.524 9.38087 14.0625 7.875 14.0625C4.45774 14.0625 1.6875 11.2923 1.6875 7.875Z" fill="#262626"/>
</svg>
