<svg width="26" height="22" viewBox="0 0 26 22" fill="none" xmlns="http://www.w3.org/2000/svg">
<path d="M14.6 4C12.9026 4 11.2747 4.65555 10.0745 5.82245C8.87428 6.98934 8.2 8.57199 8.2 10.2222C8.2 11.8725 8.87428 13.4551 10.0745 14.622C11.2747 15.7889 12.9026 16.4444 14.6 16.4444C16.2974 16.4444 17.9253 15.7889 19.1255 14.622C20.3257 13.4551 21 11.8725 21 10.2222H19.4C19.4 12.8044 17.256 14.8889 14.6 14.8889C13.327 14.8889 12.1061 14.3972 11.2059 13.5221C10.3057 12.6469 9.8 11.4599 9.8 10.2222C9.8 8.98455 10.3057 7.79756 11.2059 6.92239C12.1061 6.04722 13.327 5.55556 14.6 5.55556C14.944 5.55556 15.288 5.59444 15.616 5.66444L16.904 4.42C16.168 4.14 15.4 4 14.6 4ZM19.872 5.22889L14.6 10.3544L12.696 8.50333L11.568 9.60778L14.6 12.5556L21 6.33333M7.344 6.97111C6.61258 7.55441 6.02307 8.28793 5.61779 9.11899C5.21252 9.95005 5.00154 10.858 5 11.7778C5 13.428 5.67428 15.0107 6.87452 16.1776C8.07475 17.3444 9.70261 18 11.4 18C11.912 18 12.416 17.9378 12.904 17.8211C11.496 17.5178 10.2 16.8333 9.136 15.8922C8.36984 15.4938 7.72928 14.9006 7.28266 14.176C6.83604 13.4514 6.6001 12.6225 6.6 11.7778C6.6 11.5444 6.624 11.3189 6.656 11.0856C6.624 10.7978 6.6 10.51 6.6 10.2222C6.6 9.10222 6.856 7.99 7.344 6.97111Z" fill="#379E37"/>
</svg>
