<svg width="16" height="23" viewBox="0 0 16 23" fill="none" xmlns="http://www.w3.org/2000/svg">
<path d="M7.77661 17.8316C7.25406 17.8317 6.74786 17.6389 6.34531 17.2863C5.94277 16.9337 5.66912 16.4434 5.57158 15.9001C4.10425 15.4202 2.81208 14.4739 1.87061 13.1898C1.15986 12.2212 0.671496 11.091 0.444027 9.88853C0.216559 8.68602 0.256213 7.44402 0.559861 6.2605C0.863509 5.07698 1.42285 3.98432 2.19375 3.06869C2.96466 2.15306 3.92604 1.43952 5.00208 0.984342C6.07812 0.529165 7.23938 0.344806 8.39425 0.445807C9.54913 0.546808 10.666 0.930406 11.6569 1.56634C12.6477 2.20228 13.4854 3.07316 14.1038 4.11029C14.7222 5.14743 15.1045 6.32244 15.2204 7.54266C15.2608 7.97803 14.9212 8.33265 14.5084 8.33265C14.0955 8.33265 13.7649 7.97644 13.7155 7.54266C13.582 6.4231 13.1682 5.36163 12.517 4.46808C11.8658 3.57453 11.0008 2.88137 10.0116 2.46031C9.02231 2.03925 7.9447 1.90559 6.89024 2.07316C5.83579 2.24073 4.84279 2.70344 4.01401 3.41342C3.18523 4.1234 2.55076 5.05485 2.17625 6.1114C1.80175 7.16795 1.70082 8.31121 1.8839 9.4229C2.06698 10.5346 2.52742 11.5743 3.21759 12.4345C3.90775 13.2946 4.80256 13.944 5.80944 14.3154C5.99979 13.9479 6.27866 13.6402 6.61773 13.4237C6.95679 13.2071 7.34397 13.0894 7.73994 13.0825C8.13591 13.0755 8.52656 13.1796 8.87222 13.3841C9.21788 13.5887 9.50624 13.8864 9.708 14.247C9.90976 14.6076 10.0177 15.0184 10.021 15.4375C10.0242 15.8566 9.92259 16.2691 9.72642 16.6332C9.53026 16.9973 9.24654 17.2999 8.90408 17.5104C8.56162 17.7209 8.17263 17.8317 7.77661 17.8316ZM1.79282 15.4569V15.4141C1.38378 15.0264 1.00922 14.5998 0.673854 14.1397C0.428093 14.5297 0.296923 14.988 0.296875 15.4569V16.2484C0.296875 19.3688 3.07933 22.5811 7.77661 22.5811C12.4739 22.5811 15.2563 19.3688 15.2563 16.2484V15.4569C15.2563 14.827 15.0199 14.223 14.5991 13.7777C14.1783 13.3323 13.6075 13.0821 13.0124 13.0821H10.7685C11.0961 13.5412 11.3295 14.0795 11.4417 14.6653H13.0124C13.2108 14.6653 13.401 14.7487 13.5413 14.8971C13.6816 15.0456 13.7604 15.2469 13.7604 15.4569V16.2484C13.7604 18.525 11.6182 20.9979 7.77661 20.9979C3.93502 20.9979 1.79282 18.525 1.79282 16.2484V15.4569ZM7.77661 11.499C6.92064 11.4989 6.09057 11.8096 5.42498 12.3792C4.77094 11.9551 4.23093 11.3602 3.85684 10.6516C3.48274 9.94294 3.28712 9.14439 3.28877 8.33265C3.28899 7.50463 3.49376 6.69105 3.88276 5.97262C4.27176 5.25419 4.83149 4.65587 5.50641 4.23701C6.18133 3.81815 6.948 3.5933 7.73037 3.58477C8.51274 3.57624 9.28363 3.78432 9.96656 4.18838C10.6495 4.59243 11.2207 5.17842 11.6237 5.88822C12.0266 6.59802 12.2471 7.40696 12.2635 8.2348C12.2798 9.06265 12.0914 9.88063 11.7168 10.6076C11.3423 11.3346 10.7946 11.9453 10.1282 12.3792C9.46264 11.8096 8.63257 11.4989 7.77661 11.499ZM4.78471 8.33265C4.78471 9.17241 5.09993 9.97778 5.66102 10.5716C6.22211 11.1654 6.98311 11.499 7.77661 11.499C8.5701 11.499 9.3311 11.1654 9.89219 10.5716C10.4533 9.97778 10.7685 9.17241 10.7685 8.33265C10.7685 7.49289 10.4533 6.68753 9.89219 6.09373C9.3311 5.49993 8.5701 5.16634 7.77661 5.16634C6.98311 5.16634 6.22211 5.49993 5.66102 6.09373C5.09993 6.68753 4.78471 7.49289 4.78471 8.33265Z" fill="black"/>
</svg>
