<svg width="20" height="19" viewBox="0 0 20 19" fill="none" xmlns="http://www.w3.org/2000/svg">
<path fill-rule="evenodd" clip-rule="evenodd" d="M8.72266 3.08398C6.14533 3.08398 4.05599 5.17332 4.05599 7.75065C4.05599 7.88043 4.0613 8.00907 4.07173 8.13635C2.6842 8.78824 1.72266 10.1982 1.72266 11.834C1.72266 14.0891 3.55083 15.9173 5.80599 15.9173H14.556C16.489 15.9173 18.056 14.3503 18.056 12.4173C18.056 11.107 17.3361 9.96587 16.2716 9.36609C16.2943 9.2196 16.306 9.0697 16.306 8.91732C16.306 7.30649 15.0002 6.00065 13.3893 6.00065C13.2772 6.00065 13.1665 6.007 13.0575 6.01938C12.3699 4.29951 10.6888 3.08398 8.72266 3.08398ZM10.3018 7.33817C10.074 7.11037 9.70465 7.11037 9.47685 7.33817L7.14351 9.67151C6.9157 9.89931 6.9157 10.2687 7.14351 10.4965C7.37132 10.7243 7.74066 10.7243 7.96847 10.4965L9.30599 9.15894L9.30599 13.0007C9.30599 13.3228 9.56716 13.584 9.88932 13.584C10.2115 13.584 10.4727 13.3228 10.4727 13.0007V9.15894L11.8102 10.4965C12.038 10.7243 12.4073 10.7243 12.6351 10.4965C12.8629 10.2687 12.8629 9.89931 12.6351 9.67151L10.3018 7.33817Z" fill="#379E37"/>
</svg>
