<svg width="18" height="18" viewBox="0 0 18 18" fill="none" xmlns="http://www.w3.org/2000/svg">
<path fill-rule="evenodd" clip-rule="evenodd" d="M9.00023 2.02722C5.10164 2.02722 1.94141 5.18357 1.94141 9.07737C1.94141 10.4099 2.31199 11.6577 2.95647 12.7209L2.32682 14.8585C2.29067 14.9812 2.28829 15.1114 2.31993 15.2354C2.35158 15.3594 2.41608 15.4725 2.50665 15.563C2.59722 15.6534 2.71052 15.7179 2.83464 15.7495C2.95876 15.7811 3.08911 15.7787 3.21199 15.7426L5.35223 15.1137C6.45252 15.7785 7.71428 16.1292 9.00023 16.1275C12.8988 16.1275 16.0591 12.9712 16.0591 9.07737C16.0591 5.18357 12.8988 2.02722 9.00023 2.02722ZM7.40352 10.6728C8.83152 12.0984 10.1946 12.2866 10.676 12.3042C11.408 12.331 12.1209 11.7726 12.3983 11.1247C12.4331 11.0441 12.4456 10.9556 12.4347 10.8685C12.4238 10.7814 12.3898 10.6987 12.3362 10.6291C11.9494 10.1356 11.4263 9.78098 10.9153 9.42847C10.8086 9.35461 10.6775 9.32494 10.5494 9.34572C10.4213 9.3665 10.3062 9.43609 10.2285 9.53986L9.80494 10.185C9.78256 10.2195 9.74786 10.2443 9.70788 10.2542C9.66791 10.2642 9.62564 10.2586 9.58964 10.2385C9.30235 10.0743 8.88376 9.79508 8.58305 9.49474C8.28235 9.19441 8.01976 8.79537 7.87223 8.52676C7.85438 8.49253 7.84934 8.45307 7.85801 8.41547C7.86668 8.37786 7.88849 8.34458 7.91952 8.3216L8.57176 7.83796C8.66511 7.7573 8.72538 7.64507 8.74101 7.52278C8.75664 7.40049 8.72653 7.27674 8.65647 7.17524C8.34023 6.71275 7.97176 6.12477 7.43741 5.7349C7.3683 5.6853 7.28754 5.65438 7.20295 5.64511C7.11836 5.63585 7.03281 5.64856 6.95458 5.68202C6.30517 5.9598 5.74329 6.67186 5.77011 7.40437C5.78776 7.88519 5.97623 9.24658 7.40352 10.6728Z" fill="#262626"/>
</svg>
